<svg xmlns="http://www.w3.org/2000/svg" viewBox="0 0 131.86 63.18"><title>logo</title><g id="logo"><path d="M9.33,45.05a0,0,0,0,1-.05,0,0,0,0,0,1,0,0c-.73-6,.88-11.11,4.77-13.36l7.17-4.14L14,23.42C10.12,21.17,8.51,16,9.24,10.06a0,0,0,0,1,0,0s0,0,0,0a8.38,8.38,0,0,0,4.45,6.65l12,6.9a7.93,7.93,0,0,1,1,.69,8.11,8.11,0,0,0,3.66-6.16,0,0,0,0,1,0,0,0,0,0,0,1,0,0,17,17,0,0,1-1.19,9.41,15.22,15.22,0,0,1,1.37,6.65v3.41c0,4.77-1.67,8.71-4.94,10.6l-11.95,6.9a8.33,8.33,0,0,0-4.44,6.65,0,0,0,0,1-.05,0,0,0,0,0,1,0,0c-.73-6,.88-11.11,4.77-13.36l12-6.89a9.92,9.92,0,0,0,2.6-2.17,5.34,5.34,0,0,0,1.3-3.43,5.28,5.28,0,0,0-1.21-3.32,9.58,9.58,0,0,0-1.91-1.78,11.41,11.41,0,0,1-1,.69L13.77,38.39a8.37,8.37,0,0,0-4.44,6.66Z" transform="translate(-9.07)" style="fill:#b66b95;fill-rule:evenodd"/><path d="M28.58,6.25A6.25,6.25,0,1,1,22.33,0,6.25,6.25,0,0,1,28.58,6.25Z" transform="translate(-9.07)" style="fill:#b66b95"/><path d="M45.4,15.48H44.26v-5.1H45.4Zm0,31H44.26V20.48H45.4Z" transform="translate(-9.07)" style="fill:#505050"/><path d="M70.82,28.15c0-5.2-3.88-7.27-9.48-7.27-8.23,0-8.8,4.6-8.8,5.51a4.34,4.34,0,0,0,3.26,4.54c2.05.71,4.39,1.16,7.54,1.92,4.51,1,9.42,2,9.42,7C72.76,45,67.22,47,62.14,47c-7.71,0-11.89-3-11.89-9.5H51.4C51.4,43.3,55.34,46,62.14,46c4.22,0,9.48-1.67,9.48-6.11,0-4.6-5.08-5.3-10.11-6.41a45.44,45.44,0,0,1-6.57-1.77c-2.4-.91-3.54-2.58-3.54-5.35s2.62-6.52,9.94-6.52C67.85,19.87,72,22.4,72,28.15Z" transform="translate(-9.07)" style="fill:#505050"/><path d="M79.28,15.48H78.13v-5.1h1.15Zm0,31H78.13V20.48h1.15Z" transform="translate(-9.07)" style="fill:#505050"/><path d="M108.41,10.38h1.14V46.43h-1.14V39.16h-.11C106.81,43.7,102.52,47,96.53,47,88.76,47,84,41.33,84,33.51c0-7.27,4.39-13.64,12.51-13.64,6.23,0,10.39,3.18,11.77,7.88h.11ZM96.53,20.88c-8.06,0-11.37,6.62-11.37,12.63C85.16,40.17,88.93,46,96.53,46s11.88-5.81,11.88-12.52C108.41,25.48,103.67,20.88,96.53,20.88Z" transform="translate(-9.07)" style="fill:#505050"/><path d="M116.17,28.51c.29-4.9,4-8.64,11.2-8.64,5.2,0,9.54,1.77,9.71,7.42V43.8c0,2,2.12,1.77,3.72,1.62v1c-2.23.15-4.86.15-4.86-2.52V40.52h-.11c-1.14,3.34-5.6,6.52-11.66,6.52-5.82,0-9.82-2.43-9.82-7,0-6.41,5.19-7.47,10.11-7.78,8-.4,11.48-.25,11.48-4.19,0-3.13-.74-7.17-8.57-7.17-6.11,0-9.65,2.78-10.05,7.63Zm19.77,2.67h-.11c-1.55,2-6.63,1.77-11.37,2.07s-9,1.21-9,6.77c0,3,2.17,6,8.57,6,7.66,0,11.88-5,11.88-10.05Z" transform="translate(-9.07)" style="fill:#505050"/><path d="M114.58,57.91a2.23,2.23,0,0,0-2.5-2c-1.85,0-2.84,1.64-2.84,3.32,0,2,.93,3.46,2.84,3.46a2.53,2.53,0,0,0,2.57-2.3h.55a3,3,0,0,1-3.12,2.77c-2.4,0-3.39-1.88-3.39-3.93s1.21-3.79,3.39-3.79c1.6,0,2.89.77,3,2.45Z" transform="translate(-9.07)" style="fill:#505050"/><path d="M117.87,52.76V63h-.55V52.76Z" transform="translate(-9.07)" style="fill:#505050"/><path d="M120.45,54.24V52.76H121v1.48Zm0,8.77V55.63H121V63Z" transform="translate(-9.07)" style="fill:#505050"/><path d="M123.45,55.63H124v1.58h0a2.72,2.72,0,0,1,2.64-1.75c2.6,0,2.63,2.08,2.63,3V63h-.55V58.34c0-.76-.08-2.41-2.09-2.41C125,55.93,124,57.21,124,59v4h-.55Z" transform="translate(-9.07)" style="fill:#505050"/><path d="M131.75,54.24V52.76h.55v1.48Zm0,8.77V55.63h.55V63Z" transform="translate(-9.07)" style="fill:#505050"/><path d="M140.31,57.91a2.23,2.23,0,0,0-2.5-2c-1.85,0-2.84,1.64-2.84,3.32,0,2,.93,3.46,2.84,3.46a2.53,2.53,0,0,0,2.57-2.3h.55a3,3,0,0,1-3.12,2.77c-2.4,0-3.39-1.88-3.39-3.93s1.21-3.79,3.39-3.79c1.6,0,2.89.77,3.05,2.45Z" transform="translate(-9.07)" style="fill:#505050"/></g></svg>